# ProBuilder 4.2.3
# https://unity3d.com/unity/features/worldbuilding/probuilder
# 23/11/2020 9:55:24 a.m.

mtllib ./Tile_Visual.mtl
o Tile Visual

g Tile Visual
v 0.36 -0.5 0.5
v -0.36 -0.5 0.5
v 0.36 0.46 0.5
v -0.36 0.46 0.5
v -0.5 -0.5 0.36
v -0.5 -0.5 -0.36
v -0.5 0.46 0.36
v -0.5 0.46 -0.36
v -0.36 -0.5 -0.5
v 0.36 -0.5 -0.5
v -0.36 0.46 -0.5
v 0.36 0.46 -0.5
v 0.5 -0.5 -0.36
v 0.5 -0.5 0.36
v 0.5 0.46 -0.36
v 0.5 0.46 0.36
v -0.4282843 -0.5 0.4717157
v -0.4282843 0.46 0.4717157
v -0.4717157 -0.5 0.4282843
v -0.4717157 0.46 0.4282843
v -0.4717157 -0.5 -0.4282843
v -0.4717157 0.46 -0.4282843
v -0.4282843 -0.5 -0.4717157
v -0.4282843 0.46 -0.4717157
v 0.4282843 0.46 0.4717157
v 0.4282843 -0.5 0.4717157
v 0.4717157 0.46 0.4282843
v 0.4717157 -0.5 0.4282843
v 0.4282843 -0.5 -0.4717157
v 0.4282843 0.46 -0.4717157
v 0.4717157 -0.5 -0.4282843
v 0.4717157 0.46 -0.4282843
v -0.3191998 -0.5001 -0.407626
v -0.3989997 -0.5001 -0.3261008
v -0.3989997 -0.5001 0.3261008
v -0.3191998 -0.5001 0.407626
v 0.3191998 -0.5001 0.407626
v 0.3989997 -0.5001 0.3261008
v 0.3989997 -0.5001 -0.3261008
v 0.3191998 -0.5001 -0.407626
v -0.4020306 0.5000324 0.44169
v -0.4393525 0.5000321 0.4045829
v -0.34718 0.5001 0.3790409
v -0.3710195 0.5001 0.354686
v -0.4677183 0.5000319 0.3363803
v -0.4677183 0.5000319 -0.3363803
v -0.3989997 0.5001 0.2861008
v -0.3989997 0.5001 -0.2861008
v -0.4393525 0.5000321 -0.4045829
v -0.4020306 0.5000324 -0.44169
v -0.3710195 0.5001 -0.354686
v -0.34718 0.5001 -0.3790409
v -0.3336648 0.5000326 -0.4698926
v 0.3336648 0.5000326 -0.4698926
v -0.2791998 0.5001 -0.407626
v 0.2791998 0.5001 -0.407626
v 0.4020306 0.5000324 -0.4416901
v 0.4393525 0.5000321 -0.4045829
v 0.3471799 0.5001 -0.3790409
v 0.3710195 0.5001 -0.3546859
v 0.4677183 0.5000319 -0.3363803
v 0.4677183 0.5000319 0.3363803
v 0.3989997 0.5001 -0.2861008
v 0.3989997 0.5001 0.2861008
v 0.4393525 0.5000321 0.4045829
v 0.4020306 0.5000324 0.4416901
v 0.3710195 0.5001 0.3546859
v 0.3471799 0.5001 0.3790409
v 0.3336648 0.5000326 0.4698926
v -0.3336648 0.5000326 0.4698926
v 0.2791998 0.5001 0.407626
v -0.2791998 0.5001 0.407626
v -0.3736648 -0.5000326 -0.4698926
v 0.3736648 -0.5000326 -0.4698926
v 0.4677183 -0.5000319 -0.3763803
v 0.4677183 -0.5000319 0.3763803
v 0.3736648 -0.5000326 0.4698926
v -0.3736648 -0.5000326 0.4698926
v -0.4677183 -0.5000319 -0.3763803
v -0.4677183 -0.5000319 0.3763803

vt 0.5000001 1.40122E-07
vt 0.3062936 1.40122E-07
vt 0.5000001 0.2582751
vt 0.3062936 0.2582751
vt 0.2500001 2.627287E-08
vt 0.05629373 2.627287E-08
vt 0.2500001 0.258275
vt 0.05629373 0.258275
vt 1 1.40122E-07
vt 0.8062937 1.40122E-07
vt 1 0.2582751
vt 0.8062937 0.2582751
vt 0.75 1.40122E-07
vt 0.5562938 1.40122E-07
vt 0.75 0.2582751
vt 0.5562938 0.2582751
vt 0.2864093 2.627287E-08
vt 0.2864093 0.258275
vt 0.2698846 2.627287E-08
vt 0.2698846 0.258275
vt 0.03640919 2.627287E-08
vt 0.03640919 0.258275
vt 0.0198845 2.627287E-08
vt 0.0198845 0.258275
vt 0.5198845 0.2582751
vt 0.5198845 1.40122E-07
vt 0.5364091 0.2582751
vt 0.5364091 1.40122E-07
vt 0.7864091 1.40122E-07
vt 0.7864091 0.2582751
vt 0.7698845 1.40122E-07
vt 0.7698845 0.2582751
vt 0.08530314 0.7598645
vt 0.06685186 0.7787147
vt 0.06685186 0.9295163
vt 0.08530314 0.9483665
vt 0.2329134 0.9483665
vt 0.2513647 0.9295163
vt 0.2513647 0.7787147
vt 0.2329134 0.7598645
vt 0.3065853 0.4476761
vt 0.3128614 0.4414362
vt 0.2973617 0.437141
vt 0.3013705 0.4330455
vt 0.2436455 0.2721106
vt 0.0626484 0.2721179
vt 0.2301192 0.290599
vt 0.07617609 0.2906051
vt 0.1538018 0.4389301
vt 0.1475257 0.4326901
vt 0.142311 0.4473208
vt 0.138302 0.4432252
vt 0.9929149 0.2717515
vt 0.8133789 0.2717515
vt 0.9782618 0.2885034
vt 0.828032 0.2885034
vt 0.60976 0.4351317
vt 0.6034839 0.4413716
vt 0.6189837 0.4456667
vt 0.6149749 0.4497622
vt 0.7436454 0.2722721
vt 0.5626483 0.2721108
vt 0.7301019 0.2907478
vt 0.5761589 0.2906106
vt 0.4583014 0.4315575
vt 0.4645774 0.4377975
vt 0.4697922 0.4231669
vt 0.4738011 0.4272624
vt 0.4929146 0.2720674
vt 0.3133789 0.2717513
vt 0.478232 0.2887937
vt 0.3280024 0.2885291
vt 0.6048481 0.400685
vt 0.610786 0.3922338
vt 0.6131921 0.4052889
vt 0.6182947 0.3980579
vt 0.1474899 0.4144688
vt 0.153447 0.4229063
vt 0.1399944 0.4203099
vt 0.1451135 0.4275293
vt 0.3120116 0.4158037
vt 0.3060737 0.4242548
vt 0.3036675 0.4111998
vt 0.2985649 0.4184309
vt 0.4929149 0.2717513
vt 0.4635607 0.4155517
vt 0.4576036 0.4071142
vt 0.4710562 0.4097106
vt 0.4659371 0.4024913
vt 0.7499999 0.2582751
vt 0.7499999 1.050915E-07
vt 0.5278362 0.5370511
vt 0.5364094 0.5329205
vt 0.5312817 0.5489928
vt 0.5398648 0.5448515
vt 0.5363636 0.6148154
vt 0.5479194 0.6063604
vt 0.5411336 0.6262843
vt 0.5526245 0.6178937
vt 0.4053928 0.6033213
vt 0.4146165 0.5927863
vt 0.4168892 0.6080638
vt 0.426048 0.5975931
vt 0.4263278 0.5351043
vt 0.4197037 0.5419368
vt 0.415665 0.528704
vt 0.4090536 0.5355298
vt 0.7327172 0.5492351
vt 0.7442082 0.5576258
vt 0.7279473 0.5607041
vt 0.739503 0.569159
vt 0.8402728 0.4717559
vt 0.8488545 0.4759004
vt 0.836823 0.4836962
vt 0.8453946 0.48783
vt 0.7814235 0.5071853
vt 0.7905824 0.5176561
vt 0.7699271 0.5119278
vt 0.7791508 0.5224629
vt 0.8460376 0.5609147
vt 0.8394217 0.5540932
vt 0.8566962 0.5545075
vt 0.8500676 0.5476793
vt -3.436014 1.65639
vt -3.452412 1.675119
vt -3.456452 1.647959
vt -3.472734 1.666573
vt -3.182534 1.657089
vt -3.203077 1.67212
vt -3.191014 1.6367
vt -3.211442 1.651616
vt -3.435963 1.544734
vt -3.424186 1.532588
vt -3.417006 1.556113
vt -3.405253 1.543978
vt 0 0.258275
vt 0 0
vt -3.226618 1.537147
vt -3.211363 1.529777
vt -3.220464 1.558354
vt -3.205227 1.551003
vt 0.1347306 0.634169
vt 0.1232397 0.6257784
vt 0.1395006 0.6227001
vt 0.1279448 0.6142451
vt 0.2586268 0.6163954
vt 0.2678505 0.6269304
vt 0.2471953 0.6212023
vt 0.2563541 0.631673
vt 0.2546315 0.5438763
vt 0.2612474 0.5506978
vt 0.243973 0.5502836
vt 0.2506016 0.5571118
vt 0.1343944 0.5456481
vt 0.1429669 0.5497798
vt 0.1309375 0.5575786
vt 0.13952 0.561721
vt 0.07586934 0.7385058
vt 0.07270978 0.7454672
vt 0.2455068 0.7454672
vt 0.2423472 0.7385058
vt 0.2581359 0.7450457
vt 0.2672538 0.7670891
vt 0.268178 0.7550879
vt 0.2747179 0.7708765
vt 0.2672538 0.9411418
vt 0.2747179 0.9373544
vt 0.268178 0.9531431
vt 0.2455068 0.9627637
vt 0.2581359 0.9631853
vt 0.2423472 0.9697251
vt 0.07270978 0.9627637
vt 0.07586934 0.9697251
vt 0.9631972 0.9607348
vt 0.9715619 0.9402313
vt 0.9715619 0.7691715
vt 0.9631972 0.748668
vt 0.9560704 0.7413871
vt 0.9357477 0.7328415
vt 0.768814 0.7328415
vt 0.7484913 0.741387
vt 0.7413645 0.748668
vt 0.7329998 0.7691715
vt 0.7329998 0.9402313
vt 0.7413645 0.9607348
vt 0.7484913 0.9680158
vt 0.768814 0.9765613
vt 0.9357477 0.9765613
vt 0.9560704 0.9680157
vt 0.05003852 0.7550879
vt 0.0509628 0.7670891
vt 0.06008071 0.7450457
vt 0.04349864 0.9373544
vt 0.0509628 0.9411418
vt 0.04349864 0.7708765
vt 0.06008071 0.9631853
vt 0.05003852 0.9531431

vn 0 0 1
vn -1 0 0
vn 0 0 -1
vn 1 0 0
vn -0.7071068 0 0.7071068
vn -0.7071068 0 -0.7071068
vn 0.7071068 0 0.7071068
vn 0.7071068 0 -0.7071068
vn 0 -1 0
vn -0.0005777486 0.9999997 0.0005730613
vn -0.0009905396 0.9999995 0
vn -0.0005761994 0.9999997 -0.0005715032
vn -4.835011E-11 0.9999994 -0.001082649
vn 0.0005777489 0.9999997 -0.0005730606
vn 0.0009905399 0.9999995 0
vn 0.0005761998 0.9999997 0.0005715027
vn -4.835009E-11 0.9999994 0.001082649
vn 0.5024318 0.703651 -0.5024318
vn 0.5012103 0.7043615 -0.5026541
vn 0.4999888 0.705072 -0.5028764
vn 0.778433 0.6277278 0
vn 0 0.6010595 -0.7992043
vn -0.5014815 0.7050055 -0.5014815
vn -0.5012878 0.7042484 -0.5027351
vn -0.501094 0.7034913 -0.5039888
vn -0.778433 0.6277277 0
vn -0.5024318 0.703651 0.5024318
vn -0.50121 0.7043617 0.5026541
vn -0.4999881 0.7050725 0.5028765
vn 0 0.6010599 0.7992041
vn 0.5014816 0.7050052 0.5014816
vn 0.5012879 0.7042484 0.5027349
vn 0.5010943 0.7034916 0.5039883
vn 0.3826835 0 -0.9238795
vn 0.9238797 0 -0.3826832
vn 0.9238795 0 0.3826835
vn 0.3826835 0 0.9238795
vn 0.6628856 0.6965563 0.2745763
vn 0.6621914 0.6971089 0.2748472
vn 0.6614972 0.6976614 0.2751181
vn 0.0003288961 0.9999996 0.0007909365
vn 0.2770179 0.687262 0.6715147
vn 0.2776541 0.6868398 0.6716834
vn 0.2782904 0.6864176 0.6718521
vn 0.6620058 0.6975358 -0.2742119
vn 0.6621915 0.6971086 -0.274848
vn 0.6623771 0.6966815 -0.275484
vn 0.0003301161 0.9999996 -0.0007938939
vn 0.277386 0.6862404 -0.6724069
vn 0.2776535 0.6868398 -0.6716835
vn 0.277921 0.6874391 -0.6709601
vn -0.2770178 0.6872623 -0.6715145
vn -0.2776541 0.6868401 -0.6716832
vn -0.2782903 0.6864179 -0.6718519
vn -0.3826835 0 -0.9238795
vn -0.9238795 0 -0.3826835
vn -0.6614974 0.6976613 -0.2751182
vn -0.6621915 0.6971087 -0.2748473
vn -0.6628857 0.6965561 -0.2745763
vn -0.3826835 0 0.9238795
vn -0.2773859 0.6862408 0.6724066
vn -0.2776533 0.6868401 0.6716833
vn -0.2779208 0.6874393 0.6709599
vn -0.9238794 0 0.3826837
vn -0.662377 0.6966816 0.275484
vn -0.6621914 0.6971087 0.274848
vn -0.6620057 0.6975358 0.274212
vn 6.603531E-08 -0.9999995 -0.001082764
vn 0.0005746355 -0.9999996 -0.0005728014
vn 0.0009901811 -0.9999995 -2.355466E-07
vn 0.0005715076 -0.9999997 0.0005715076
vn -9.96513E-08 -0.9999995 0.001082779
vn 0 1 0
vn -0.0005715079 -0.9999997 -0.0005715079
vn -0.0009901414 -0.9999995 3.531469E-07
vn -0.0005746348 -0.9999996 0.0005728013
vn 0.0005524098 -0.999999 -0.001333635
vn 0.001253024 -0.9999991 -0.0005190191
vn 0.001253024 -0.9999991 0.0005190195
vn 0.0005524098 -0.999999 0.001333635
vn -0.0005524091 -0.999999 -0.001333633
vn -0.001253024 -0.9999991 -0.0005190198
vn -0.0005524091 -0.999999 0.001333633
vn -0.001253024 -0.9999991 0.0005190198

usemtl Tile_Normal_Material
f 38/38/9 37/37/9 36/36/9
f 38/38/9 36/36/9 33/33/9
f 39/39/9 38/38/9 33/33/9
f 39/39/9 33/33/9 40/40/9
f 36/36/9 34/34/9 33/33/9
f 34/34/9 36/36/9 35/35/9
f 40/40/68 10/161/68 74/160/68
f 9/158/68 10/161/68 40/40/68
f 9/158/68 40/40/68 33/33/68
f 73/159/68 9/158/68 33/33/68
f 29/162/69 31/164/69 75/163/69
f 29/162/69 75/163/69 74/160/69
f 74/160/69 75/163/69 39/39/69
f 40/40/69 74/160/69 39/39/69
f 38/38/70 14/167/70 76/166/70
f 38/38/70 13/165/70 14/167/70
f 39/39/70 13/165/70 38/38/70
f 39/39/70 75/163/70 13/165/70
f 76/166/71 28/168/71 26/170/71
f 76/166/71 26/170/71 77/169/71
f 77/169/71 38/38/71 76/166/71
f 37/37/71 38/38/71 77/169/71
f 37/37/72 77/169/72 1/171/72
f 2/173/72 37/37/72 1/171/72
f 2/173/72 36/36/72 37/37/72
f 78/172/72 36/36/72 2/173/72
f 34/34/74 73/159/74 33/33/74
f 73/159/74 34/34/74 79/191/74
f 23/192/74 73/159/74 79/191/74
f 21/190/74 23/192/74 79/191/74
f 5/193/75 35/35/75 80/194/75
f 5/193/75 6/195/75 35/35/75
f 34/34/75 35/35/75 6/195/75
f 79/191/75 34/34/75 6/195/75
f 35/35/76 36/36/76 78/172/76
f 80/194/76 35/35/76 78/172/76
f 80/194/76 78/172/76 17/196/76
f 80/194/76 17/196/76 19/197/76
f 10/161/77 29/162/77 74/160/77
f 75/163/78 31/164/78 13/165/78
f 14/167/79 28/168/79 76/166/79
f 77/169/80 26/170/80 1/171/80
f 73/159/81 23/192/81 9/158/81
f 6/195/82 21/190/82 79/191/82
f 2/173/83 17/196/83 78/172/83
f 80/194/84 19/197/84 5/193/84
f 4/4/1 2/2/1 1/1/1
f 1/1/1 3/3/1 4/4/1
f 8/8/2 6/6/2 5/5/2
f 5/5/2 7/7/2 8/8/2
f 12/12/3 10/10/3 9/9/3
f 9/9/3 11/11/3 12/12/3
f 16/16/4 14/14/4 13/13/4
f 13/13/4 15/15/4 16/16/4
f 19/19/5 17/17/5 18/18/5
f 18/18/5 20/20/5 19/19/5
f 23/23/6 21/21/6 22/22/6
f 22/22/6 24/24/6 23/23/6
f 27/27/7 25/25/7 26/26/7
f 26/26/7 28/28/7 27/27/7
f 31/31/8 29/29/8 30/30/8
f 30/30/8 32/32/8 31/31/8
f 44/44/10 42/42/10 41/41/10
f 41/41/10 43/43/10 44/44/10
f 48/48/11 46/46/11 45/45/11
f 45/45/11 47/47/11 48/48/11
f 52/52/12 50/50/12 49/49/12
f 49/49/12 51/51/12 52/52/12
f 56/56/13 54/54/13 53/53/13
f 53/53/13 55/55/13 56/56/13
f 60/60/14 58/58/14 57/57/14
f 57/57/14 59/59/14 60/60/14
f 64/64/15 62/62/15 61/61/15
f 61/61/15 63/63/15 64/64/15
f 68/68/16 66/66/16 65/65/16
f 65/65/16 67/67/16 68/68/16
f 72/72/17 70/70/17 69/69/17
f 69/69/17 71/71/17 72/72/17
f 58/75/19 32/73/18 30/74/19
f 30/74/19 57/76/20 58/75/19
f 62/62/21 16/16/21 15/15/21
f 15/15/21 61/61/21 62/62/21
f 54/54/22 12/12/22 11/11/22
f 11/11/22 53/53/22 54/54/22
f 50/79/24 24/77/23 22/78/24
f 22/78/24 49/80/25 50/79/24
f 46/46/26 8/8/26 7/7/26
f 7/7/26 45/45/26 46/46/26
f 42/83/28 20/81/27 18/82/28
f 18/82/28 41/84/29 42/83/28
f 70/70/30 4/4/30 3/3/30
f 3/3/30 69/85/30 70/70/30
f 66/88/32 25/86/31 27/87/32
f 27/87/32 65/89/33 66/88/32
f 29/29/34 10/10/34 12/12/34
f 12/12/34 30/30/34 29/29/34
f 32/32/35 15/90/35 13/91/35
f 13/91/35 31/31/35 32/32/35
f 28/28/36 14/14/36 16/16/36
f 16/16/36 27/27/36 28/28/36
f 25/25/37 3/3/37 1/1/37
f 1/1/37 26/26/37 25/25/37
f 27/94/39 16/92/38 62/93/39
f 62/93/39 65/95/40 27/94/39
f 65/98/15 62/96/15 64/97/15
f 64/97/15 67/99/15 65/98/15
f 69/102/41 66/100/41 68/101/41
f 68/101/41 71/103/41 69/102/41
f 66/106/43 69/104/42 3/105/43
f 3/105/43 25/107/44 66/106/43
f 61/110/15 58/108/15 60/109/15
f 60/109/15 63/111/15 61/110/15
f 15/114/46 32/112/45 58/113/46
f 58/113/46 61/115/47 15/114/46
f 57/118/48 54/116/48 56/117/48
f 56/117/48 59/119/48 57/118/48
f 54/122/50 57/120/49 30/121/50
f 30/121/50 12/123/51 54/122/50
f 53/126/48 50/124/48 52/125/48
f 52/125/48 55/127/48 53/126/48
f 49/130/11 46/128/11 48/129/11
f 48/129/11 51/131/11 49/130/11
f 50/134/53 53/132/52 11/133/53
f 11/133/53 24/135/54 50/134/53
f 24/24/55 11/136/55 9/137/55
f 9/137/55 23/23/55 24/24/55
f 21/21/56 6/6/56 8/8/56
f 8/8/56 22/22/56 21/21/56
f 46/140/58 49/138/57 22/139/58
f 22/139/58 8/141/59 46/140/58
f 45/144/11 42/142/11 44/143/11
f 44/143/11 47/145/11 45/144/11
f 72/148/41 43/146/41 41/147/41
f 41/147/41 70/149/41 72/148/41
f 17/17/60 2/2/60 4/4/60
f 4/4/60 18/18/60 17/17/60
f 70/152/62 41/150/61 18/151/62
f 18/151/62 4/153/63 70/152/62
f 20/20/64 7/7/64 5/5/64
f 5/5/64 19/19/64 20/20/64
f 42/156/66 45/154/65 7/155/66
f 7/155/66 20/157/67 42/156/66

usemtl Tile_Normal_Material_1
f 52/178/73 51/177/73 48/176/73
f 48/176/73 47/175/73 52/178/73
f 52/178/73 47/175/73 55/179/73
f 47/175/73 56/180/73 55/179/73
f 44/174/73 43/189/73 72/188/73
f 47/175/73 44/174/73 72/188/73
f 47/175/73 72/188/73 71/187/73
f 47/175/73 71/187/73 68/186/73
f 47/175/73 68/186/73 67/185/73
f 56/180/73 47/175/73 67/185/73
f 60/182/73 59/181/73 63/183/73
f 59/181/73 64/184/73 63/183/73
f 59/181/73 56/180/73 64/184/73
f 56/180/73 67/185/73 64/184/73

